<svg width="165" height="42" viewBox="0 0 165 42" fill="none" xmlns="http://www.w3.org/2000/svg">
<path d="M55.126 16.4385H51.8652V14.3818H55.126C55.6299 14.3818 56.04 14.2998 56.3564 14.1357C56.6729 13.9658 56.9043 13.7314 57.0508 13.4326C57.1973 13.1338 57.2705 12.7969 57.2705 12.4219C57.2705 12.041 57.1973 11.6865 57.0508 11.3584C56.9043 11.0303 56.6729 10.7666 56.3564 10.5674C56.04 10.3682 55.6299 10.2686 55.126 10.2686H52.7793V21H50.1426V8.20312H55.126C56.1279 8.20312 56.9863 8.38477 57.7012 8.74805C58.4219 9.10547 58.9727 9.60059 59.3535 10.2334C59.7344 10.8662 59.9248 11.5898 59.9248 12.4043C59.9248 13.2305 59.7344 13.9453 59.3535 14.5488C58.9727 15.1523 58.4219 15.6182 57.7012 15.9463C56.9863 16.2744 56.1279 16.4385 55.126 16.4385ZM64.2578 7.5V21H61.7178V7.5H64.2578ZM71.9746 18.7236V11.4902H74.5059V21H72.124L71.9746 18.7236ZM72.2559 16.7725L73.0029 16.7549C73.0029 17.3877 72.9297 17.9766 72.7832 18.5215C72.6367 19.0605 72.417 19.5293 72.124 19.9277C71.8311 20.3203 71.4619 20.6279 71.0166 20.8506C70.5713 21.0674 70.0469 21.1758 69.4434 21.1758C68.9805 21.1758 68.5527 21.1113 68.1602 20.9824C67.7734 20.8477 67.4395 20.6396 67.1582 20.3584C66.8828 20.0713 66.666 19.7051 66.5078 19.2598C66.3555 18.8086 66.2793 18.2666 66.2793 17.6338V11.4902H68.8105V17.6514C68.8105 17.9326 68.8428 18.1699 68.9072 18.3633C68.9775 18.5566 69.0742 18.7148 69.1973 18.8379C69.3203 18.9609 69.4639 19.0488 69.6279 19.1016C69.7979 19.1543 69.9854 19.1807 70.1904 19.1807C70.7119 19.1807 71.1221 19.0752 71.4209 18.8643C71.7256 18.6533 71.9395 18.3662 72.0625 18.0029C72.1914 17.6338 72.2559 17.2236 72.2559 16.7725ZM78.9707 13.459V21H76.4307V11.4902H78.8125L78.9707 13.459ZM78.6191 15.9111H77.916C77.916 15.249 77.9951 14.6396 78.1533 14.083C78.3174 13.5205 78.5547 13.0342 78.8652 12.624C79.1816 12.208 79.5713 11.8857 80.0342 11.6572C80.4971 11.4287 81.0332 11.3145 81.6426 11.3145C82.0645 11.3145 82.4512 11.3789 82.8027 11.5078C83.1543 11.6309 83.4561 11.8271 83.708 12.0967C83.9658 12.3604 84.165 12.7061 84.3057 13.1338C84.4463 13.5557 84.5166 14.0625 84.5166 14.6543V21H81.9854V14.9355C81.9854 14.502 81.9268 14.168 81.8096 13.9336C81.6924 13.6992 81.5254 13.5352 81.3086 13.4414C81.0977 13.3477 80.8428 13.3008 80.5439 13.3008C80.2158 13.3008 79.9287 13.3682 79.6826 13.5029C79.4424 13.6377 79.2432 13.8252 79.085 14.0654C78.9268 14.2998 78.8096 14.5752 78.7334 14.8916C78.6572 15.208 78.6191 15.5479 78.6191 15.9111ZM84.2793 15.6211L83.374 15.7354C83.374 15.1143 83.4502 14.5371 83.6025 14.0039C83.7607 13.4707 83.9922 13.002 84.2969 12.5977C84.6074 12.1934 84.9912 11.8799 85.4482 11.6572C85.9053 11.4287 86.4326 11.3145 87.0303 11.3145C87.4873 11.3145 87.9033 11.3818 88.2783 11.5166C88.6533 11.6455 88.9727 11.8535 89.2363 12.1406C89.5059 12.4219 89.7109 12.791 89.8516 13.248C89.998 13.7051 90.0713 14.2646 90.0713 14.9268V21H87.5312V14.9268C87.5312 14.4873 87.4727 14.1533 87.3555 13.9248C87.2441 13.6904 87.0801 13.5293 86.8633 13.4414C86.6523 13.3477 86.4004 13.3008 86.1074 13.3008C85.8027 13.3008 85.5361 13.3623 85.3076 13.4854C85.0791 13.6025 84.8887 13.7666 84.7363 13.9775C84.584 14.1885 84.4697 14.4346 84.3936 14.7158C84.3174 14.9912 84.2793 15.293 84.2793 15.6211ZM92.0312 7.5H94.5625V18.8203L94.3076 21H92.0312V7.5ZM100.583 16.1484V16.333C100.583 17.042 100.507 17.6924 100.354 18.2842C100.208 18.876 99.9795 19.3887 99.6689 19.8223C99.3584 20.25 98.9717 20.584 98.5088 20.8242C98.0518 21.0586 97.5127 21.1758 96.8916 21.1758C96.3115 21.1758 95.8076 21.0586 95.3799 20.8242C94.958 20.5898 94.6035 20.2588 94.3164 19.8311C94.0293 19.4033 93.7979 18.9023 93.6221 18.3281C93.4463 17.7539 93.3145 17.127 93.2266 16.4473V16.043C93.3145 15.3633 93.4463 14.7363 93.6221 14.1621C93.7979 13.5879 94.0293 13.0869 94.3164 12.6592C94.6035 12.2314 94.958 11.9004 95.3799 11.666C95.8018 11.4316 96.2998 11.3145 96.874 11.3145C97.501 11.3145 98.0459 11.4346 98.5088 11.6748C98.9775 11.9092 99.3643 12.2432 99.6689 12.6768C99.9795 13.1045 100.208 13.6143 100.354 14.2061C100.507 14.792 100.583 15.4395 100.583 16.1484ZM98.0518 16.333V16.1484C98.0518 15.7617 98.0225 15.3984 97.9639 15.0586C97.9111 14.7129 97.8174 14.4111 97.6826 14.1533C97.5479 13.8896 97.3633 13.6816 97.1289 13.5293C96.9004 13.377 96.6045 13.3008 96.2412 13.3008C95.8955 13.3008 95.6025 13.3594 95.3623 13.4766C95.1221 13.5938 94.9229 13.7578 94.7646 13.9688C94.6123 14.1797 94.498 14.4316 94.4219 14.7246C94.3457 15.0117 94.2988 15.3281 94.2812 15.6738V16.8252C94.2988 17.2881 94.375 17.6982 94.5098 18.0557C94.6504 18.4072 94.8613 18.6855 95.1426 18.8906C95.4297 19.0898 95.8018 19.1895 96.2588 19.1895C96.6162 19.1895 96.9121 19.1191 97.1465 18.9785C97.3809 18.8379 97.5625 18.6387 97.6914 18.3809C97.8262 18.123 97.9199 17.8213 97.9727 17.4756C98.0254 17.124 98.0518 16.7432 98.0518 16.333ZM106.533 21.1758C105.795 21.1758 105.133 21.0586 104.547 20.8242C103.961 20.584 103.463 20.2529 103.053 19.8311C102.648 19.4092 102.338 18.9199 102.121 18.3633C101.904 17.8008 101.796 17.2031 101.796 16.5703V16.2188C101.796 15.498 101.898 14.8389 102.104 14.2412C102.309 13.6436 102.602 13.125 102.982 12.6855C103.369 12.2461 103.838 11.9092 104.389 11.6748C104.939 11.4346 105.561 11.3145 106.252 11.3145C106.926 11.3145 107.523 11.4258 108.045 11.6484C108.566 11.8711 109.003 12.1875 109.354 12.5977C109.712 13.0078 109.981 13.5 110.163 14.0742C110.345 14.6426 110.436 15.2754 110.436 15.9727V17.0273H102.877V15.3398H107.948V15.1465C107.948 14.7949 107.884 14.4814 107.755 14.2061C107.632 13.9248 107.444 13.7021 107.192 13.5381C106.94 13.374 106.618 13.292 106.226 13.292C105.892 13.292 105.604 13.3652 105.364 13.5117C105.124 13.6582 104.928 13.8633 104.775 14.127C104.629 14.3906 104.518 14.7012 104.441 15.0586C104.371 15.4102 104.336 15.7969 104.336 16.2188V16.5703C104.336 16.9512 104.389 17.3027 104.494 17.625C104.605 17.9473 104.761 18.2256 104.96 18.46C105.165 18.6943 105.411 18.876 105.698 19.0049C105.991 19.1338 106.322 19.1982 106.691 19.1982C107.148 19.1982 107.573 19.1104 107.966 18.9346C108.364 18.7529 108.707 18.4805 108.994 18.1172L110.225 19.4531C110.025 19.7402 109.753 20.0156 109.407 20.2793C109.067 20.543 108.657 20.7598 108.177 20.9297C107.696 21.0938 107.148 21.1758 106.533 21.1758ZM114.408 13.5645V21H111.877V11.4902H114.259L114.408 13.5645ZM117.273 11.4287L117.229 13.7754C117.106 13.7578 116.957 13.7432 116.781 13.7314C116.611 13.7139 116.456 13.7051 116.315 13.7051C115.958 13.7051 115.647 13.752 115.384 13.8457C115.126 13.9336 114.909 14.0654 114.733 14.2412C114.563 14.417 114.435 14.6309 114.347 14.8828C114.265 15.1348 114.218 15.4219 114.206 15.7441L113.696 15.5859C113.696 14.9707 113.758 14.4053 113.881 13.8896C114.004 13.3682 114.183 12.9141 114.417 12.5273C114.657 12.1406 114.95 11.8418 115.296 11.6309C115.642 11.4199 116.037 11.3145 116.482 11.3145C116.623 11.3145 116.767 11.3262 116.913 11.3496C117.06 11.3672 117.18 11.3936 117.273 11.4287ZM128.093 16.4385H124.832V14.3818H128.093C128.597 14.3818 129.007 14.2998 129.323 14.1357C129.64 13.9658 129.871 13.7314 130.018 13.4326C130.164 13.1338 130.237 12.7969 130.237 12.4219C130.237 12.041 130.164 11.6865 130.018 11.3584C129.871 11.0303 129.64 10.7666 129.323 10.5674C129.007 10.3682 128.597 10.2686 128.093 10.2686H125.746V21H123.109V8.20312H128.093C129.095 8.20312 129.953 8.38477 130.668 8.74805C131.389 9.10547 131.939 9.60059 132.32 10.2334C132.701 10.8662 132.892 11.5898 132.892 12.4043C132.892 13.2305 132.701 13.9453 132.32 14.5488C131.939 15.1523 131.389 15.6182 130.668 15.9463C129.953 16.2744 129.095 16.4385 128.093 16.4385ZM134.025 16.3418V16.1572C134.025 15.46 134.125 14.8184 134.324 14.2324C134.523 13.6406 134.813 13.1279 135.194 12.6943C135.575 12.2607 136.044 11.9238 136.601 11.6836C137.157 11.4375 137.796 11.3145 138.517 11.3145C139.237 11.3145 139.879 11.4375 140.441 11.6836C141.004 11.9238 141.476 12.2607 141.856 12.6943C142.243 13.1279 142.536 13.6406 142.735 14.2324C142.935 14.8184 143.034 15.46 143.034 16.1572V16.3418C143.034 17.0332 142.935 17.6748 142.735 18.2666C142.536 18.8525 142.243 19.3652 141.856 19.8047C141.476 20.2383 141.007 20.5752 140.45 20.8154C139.894 21.0557 139.255 21.1758 138.534 21.1758C137.813 21.1758 137.172 21.0557 136.609 20.8154C136.053 20.5752 135.581 20.2383 135.194 19.8047C134.813 19.3652 134.523 18.8525 134.324 18.2666C134.125 17.6748 134.025 17.0332 134.025 16.3418ZM136.557 16.1572V16.3418C136.557 16.7402 136.592 17.1123 136.662 17.458C136.732 17.8037 136.844 18.1084 136.996 18.3721C137.154 18.6299 137.359 18.832 137.611 18.9785C137.863 19.125 138.171 19.1982 138.534 19.1982C138.886 19.1982 139.188 19.125 139.439 18.9785C139.691 18.832 139.894 18.6299 140.046 18.3721C140.198 18.1084 140.31 17.8037 140.38 17.458C140.456 17.1123 140.494 16.7402 140.494 16.3418V16.1572C140.494 15.7705 140.456 15.4072 140.38 15.0674C140.31 14.7217 140.195 14.417 140.037 14.1533C139.885 13.8838 139.683 13.6729 139.431 13.5205C139.179 13.3682 138.874 13.292 138.517 13.292C138.159 13.292 137.854 13.3682 137.603 13.5205C137.356 13.6729 137.154 13.8838 136.996 14.1533C136.844 14.417 136.732 14.7217 136.662 15.0674C136.592 15.4072 136.557 15.7705 136.557 16.1572ZM147.262 11.4902V21H144.722V11.4902H147.262ZM144.563 9.01172C144.563 8.64258 144.692 8.33789 144.95 8.09766C145.208 7.85742 145.554 7.7373 145.987 7.7373C146.415 7.7373 146.758 7.85742 147.016 8.09766C147.279 8.33789 147.411 8.64258 147.411 9.01172C147.411 9.38086 147.279 9.68555 147.016 9.92578C146.758 10.166 146.415 10.2861 145.987 10.2861C145.554 10.2861 145.208 10.166 144.95 9.92578C144.692 9.68555 144.563 9.38086 144.563 9.01172ZM151.832 13.5205V21H149.301V11.4902H151.674L151.832 13.5205ZM151.463 15.9111H150.777C150.777 15.208 150.868 14.5752 151.05 14.0127C151.231 13.4443 151.486 12.9609 151.814 12.5625C152.143 12.1582 152.532 11.8506 152.983 11.6396C153.44 11.4229 153.95 11.3145 154.513 11.3145C154.958 11.3145 155.365 11.3789 155.734 11.5078C156.104 11.6367 156.42 11.8418 156.684 12.123C156.953 12.4043 157.158 12.7764 157.299 13.2393C157.445 13.7021 157.519 14.2676 157.519 14.9355V21H154.97V14.9268C154.97 14.5049 154.911 14.1768 154.794 13.9424C154.677 13.708 154.504 13.5439 154.275 13.4502C154.053 13.3506 153.777 13.3008 153.449 13.3008C153.109 13.3008 152.813 13.3682 152.562 13.5029C152.315 13.6377 152.11 13.8252 151.946 14.0654C151.788 14.2998 151.668 14.5752 151.586 14.8916C151.504 15.208 151.463 15.5479 151.463 15.9111ZM164.102 11.4902V13.2832H158.564V11.4902H164.102ZM159.936 9.14355H162.467V18.1348C162.467 18.4102 162.502 18.6211 162.572 18.7676C162.648 18.9141 162.76 19.0166 162.906 19.0752C163.053 19.1279 163.237 19.1543 163.46 19.1543C163.618 19.1543 163.759 19.1484 163.882 19.1367C164.011 19.1191 164.119 19.1016 164.207 19.084L164.216 20.9473C163.999 21.0176 163.765 21.0732 163.513 21.1143C163.261 21.1553 162.982 21.1758 162.678 21.1758C162.121 21.1758 161.635 21.085 161.219 20.9033C160.809 20.7158 160.492 20.417 160.27 20.0068C160.047 19.5967 159.936 19.0576 159.936 18.3896V9.14355Z" fill="black"/>
<path d="M128.216 31.6318C128.16 32.3968 127.877 32.999 127.366 33.4385C126.858 33.8779 126.188 34.0977 125.354 34.0977C124.443 34.0977 123.725 33.7917 123.201 33.1797C122.68 32.5645 122.42 31.7214 122.42 30.6504V30.2158C122.42 29.5322 122.54 28.93 122.781 28.4092C123.022 27.8883 123.366 27.4896 123.812 27.2129C124.261 26.9329 124.782 26.793 125.374 26.793C126.194 26.793 126.855 27.0127 127.356 27.4521C127.858 27.8916 128.147 28.5085 128.226 29.3027H126.761C126.725 28.8438 126.596 28.5117 126.375 28.3066C126.157 28.0983 125.823 27.9941 125.374 27.9941C124.886 27.9941 124.52 28.1699 124.275 28.5215C124.035 28.8698 123.911 29.4118 123.904 30.1475V30.6846C123.904 31.4528 124.02 32.0143 124.251 32.3691C124.485 32.724 124.853 32.9014 125.354 32.9014C125.807 32.9014 126.144 32.7988 126.365 32.5938C126.59 32.3854 126.718 32.0648 126.751 31.6318H128.216ZM128.865 31.3096C128.865 30.7855 128.966 30.3184 129.168 29.9082C129.37 29.498 129.66 29.1807 130.037 28.9561C130.418 28.7314 130.859 28.6191 131.36 28.6191C132.073 28.6191 132.654 28.8372 133.104 29.2734C133.556 29.7096 133.808 30.3021 133.86 31.0508L133.87 31.4121C133.87 32.2227 133.644 32.8737 133.191 33.3652C132.739 33.8535 132.132 34.0977 131.37 34.0977C130.608 34.0977 130 33.8535 129.544 33.3652C129.091 32.877 128.865 32.2129 128.865 31.373V31.3096ZM130.276 31.4121C130.276 31.9134 130.371 32.2975 130.56 32.5645C130.748 32.8281 131.019 32.96 131.37 32.96C131.712 32.96 131.979 32.8298 132.171 32.5693C132.363 32.3057 132.459 31.8857 132.459 31.3096C132.459 30.818 132.363 30.4372 132.171 30.167C131.979 29.8968 131.709 29.7617 131.36 29.7617C131.015 29.7617 130.748 29.8968 130.56 30.167C130.371 30.4339 130.276 30.849 130.276 31.4121ZM136.062 28.7168L136.106 29.3076C136.481 28.8486 136.987 28.6191 137.625 28.6191C138.305 28.6191 138.772 28.8877 139.026 29.4248C139.397 28.8877 139.926 28.6191 140.613 28.6191C141.186 28.6191 141.613 28.7868 141.893 29.1221C142.173 29.4541 142.312 29.9554 142.312 30.626V34H140.896V30.6309C140.896 30.3314 140.838 30.1133 140.721 29.9766C140.604 29.8366 140.397 29.7666 140.101 29.7666C139.677 29.7666 139.384 29.9684 139.222 30.3721L139.227 34H137.815V30.6357C137.815 30.3298 137.755 30.1084 137.635 29.9717C137.514 29.835 137.309 29.7666 137.02 29.7666C136.619 29.7666 136.329 29.9326 136.15 30.2646V34H134.739V28.7168H136.062ZM148.157 31.4072C148.157 32.221 147.972 32.8737 147.601 33.3652C147.233 33.8535 146.735 34.0977 146.106 34.0977C145.573 34.0977 145.141 33.9121 144.812 33.541V36.0312H143.401V28.7168H144.71L144.759 29.2344C145.101 28.8242 145.547 28.6191 146.097 28.6191C146.748 28.6191 147.254 28.86 147.615 29.3418C147.977 29.8236 148.157 30.4876 148.157 31.334V31.4072ZM146.746 31.3047C146.746 30.8132 146.658 30.4339 146.482 30.167C146.31 29.9001 146.058 29.7666 145.726 29.7666C145.283 29.7666 144.979 29.9359 144.812 30.2744V32.4375C144.985 32.7858 145.293 32.96 145.735 32.96C146.409 32.96 146.746 32.4082 146.746 31.3047ZM152.098 34C152.033 33.873 151.985 33.7152 151.956 33.5264C151.614 33.9072 151.17 34.0977 150.623 34.0977C150.105 34.0977 149.676 33.9479 149.334 33.6484C148.995 33.349 148.826 32.9714 148.826 32.5156C148.826 31.9557 149.033 31.526 149.446 31.2266C149.863 30.9271 150.464 30.7757 151.248 30.7725H151.897V30.4697C151.897 30.2256 151.834 30.0303 151.707 29.8838C151.583 29.7373 151.386 29.6641 151.116 29.6641C150.879 29.6641 150.691 29.721 150.555 29.835C150.421 29.9489 150.354 30.1051 150.354 30.3037H148.943C148.943 29.9977 149.038 29.7145 149.227 29.4541C149.415 29.1937 149.682 28.9902 150.027 28.8438C150.372 28.694 150.76 28.6191 151.189 28.6191C151.84 28.6191 152.356 28.7835 152.737 29.1123C153.121 29.4378 153.313 29.8968 153.313 30.4893V32.7793C153.317 33.2806 153.387 33.6598 153.523 33.917V34H152.098ZM150.931 33.0186C151.139 33.0186 151.331 32.973 151.507 32.8818C151.683 32.7874 151.813 32.6621 151.897 32.5059V31.5977H151.37C150.664 31.5977 150.288 31.8418 150.242 32.3301L150.237 32.4131C150.237 32.5889 150.299 32.7337 150.423 32.8477C150.547 32.9616 150.716 33.0186 150.931 33.0186ZM155.696 28.7168L155.74 29.3271C156.118 28.8551 156.624 28.6191 157.259 28.6191C157.819 28.6191 158.235 28.7835 158.509 29.1123C158.782 29.4411 158.922 29.9326 158.929 30.5869V34H157.518V30.6211C157.518 30.3216 157.452 30.1051 157.322 29.9717C157.192 29.835 156.976 29.7666 156.673 29.7666C156.276 29.7666 155.978 29.9359 155.779 30.2744V34H154.368V28.7168H155.696ZM161.976 32.0029L162.952 28.7168H164.466L162.342 34.8203L162.225 35.0986C161.909 35.7887 161.388 36.1338 160.662 36.1338C160.457 36.1338 160.249 36.1029 160.037 36.041V34.9717L160.252 34.9766C160.519 34.9766 160.717 34.9359 160.848 34.8545C160.981 34.7731 161.085 34.638 161.16 34.4492L161.326 34.0146L159.476 28.7168H160.994L161.976 32.0029Z" fill="#DD3142"/>
<rect y="12.3994" width="29.4283" height="28.8932" fill="#DD3142"/>
<circle cx="24.6013" cy="17.9245" r="15.9245" fill="#DD3142" stroke="white" stroke-width="4"/>
</svg>
